<?xml version="1.0" standalone="no"?>
<!DOCTYPE svg PUBLIC "-//W3C//DTD SVG 20010904//EN"
 "http://www.w3.org/TR/2001/REC-SVG-20010904/DTD/svg10.dtd">
<svg version="1.0" xmlns="http://www.w3.org/2000/svg"
 width="512.000000pt" height="512.000000pt" viewBox="0 0 512.000000 512.000000"
 preserveAspectRatio="xMidYMid meet">
<metadata>
Created by potrace 1.14, written by Peter Selinger 2001-2017
</metadata>
<g transform="translate(0.000000,512.000000) scale(0.100000,-0.100000)"
fill="#000000" stroke="none">
<path d="M2379 5116 c-2 -2 -33 -6 -69 -9 -36 -3 -78 -8 -95 -11 -40 -7 -91
-15 -140 -22 -21 -3 -42 -7 -46 -10 -4 -2 -24 -7 -45 -10 -46 -7 -54 -9 -74
-16 -8 -3 -62 -20 -120 -39 -58 -18 -121 -39 -140 -48 -19 -8 -38 -14 -42 -13
-5 1 -8 -2 -8 -6 0 -4 -10 -8 -21 -9 -12 -1 -31 -10 -42 -20 -14 -12 -18 -13
-12 -3 6 10 2 9 -12 -3 -11 -10 -30 -19 -42 -20 -11 -1 -21 -5 -21 -8 0 -4
-16 -13 -35 -20 -19 -7 -35 -17 -35 -22 0 -4 -4 -6 -9 -3 -5 4 -11 3 -13 -1
-1 -5 -28 -21 -58 -37 -30 -16 -86 -50 -125 -75 -38 -25 -74 -48 -80 -50 -5
-2 -12 -7 -15 -11 -3 -3 -39 -31 -80 -62 -117 -87 -270 -230 -367 -344 -71
-83 -79 -92 -99 -120 -10 -15 -26 -34 -34 -43 -18 -20 -122 -177 -152 -230
-40 -69 -137 -261 -132 -261 2 0 -3 -11 -12 -25 -9 -14 -12 -25 -8 -25 5 0 3
-4 -4 -9 -7 -4 -14 -18 -15 -29 -1 -12 -4 -22 -7 -22 -4 0 -7 -6 -7 -12 -1 -7
-10 -37 -21 -66 -11 -29 -21 -54 -21 -55 0 -1 -2 -9 -5 -17 -12 -37 -45 -158
-50 -183 -3 -15 -7 -35 -10 -45 -7 -22 -12 -51 -33 -187 -25 -160 -24 -564 1
-710 3 -16 8 -43 10 -60 17 -107 64 -311 85 -360 16 -39 33 -90 34 -102 0 -7
4 -13 9 -13 4 0 8 -8 8 -17 0 -73 263 -549 359 -650 12 -12 21 -26 21 -30 0
-5 8 -16 18 -24 9 -9 36 -39 60 -67 84 -99 279 -287 345 -330 12 -8 27 -20 32
-26 13 -15 206 -145 265 -178 103 -59 118 -66 124 -61 3 4 6 1 6 -5 0 -6 18
-17 40 -23 22 -7 40 -15 40 -19 0 -8 39 -23 53 -21 4 1 15 -5 23 -14 9 -8 23
-15 33 -15 9 0 22 -5 29 -12 7 -7 12 -8 12 -4 0 5 11 1 25 -8 14 -9 25 -14 25
-11 0 3 13 -1 30 -10 16 -8 33 -14 37 -13 4 1 17 -3 28 -8 24 -13 169 -53 253
-70 50 -10 79 -14 127 -20 28 -4 53 -8 56 -10 30 -17 466 -26 604 -12 81 8
261 39 356 62 118 27 362 112 406 142 18 11 23 12 18 3 -5 -8 1 -6 12 4 11 9
23 14 26 10 4 -3 7 -1 7 5 0 7 3 11 8 10 13 -5 281 143 316 174 11 10 28 20
38 24 10 3 18 10 18 15 0 5 6 9 13 9 7 0 24 11 39 25 15 14 31 25 36 25 6 0
12 7 16 15 3 8 10 15 16 15 6 0 17 6 24 12 8 7 41 38 76 68 58 51 210 199 210
205 0 1 16 20 36 41 19 22 45 52 57 67 12 15 32 40 45 55 13 15 57 79 99 142
42 63 82 118 87 122 6 4 8 8 4 8 -3 0 13 35 35 78 48 88 69 132 90 182 8 19
22 52 32 72 9 20 18 42 19 50 2 14 32 98 47 133 7 18 27 88 34 125 2 8 4 15 5
15 1 0 3 7 5 15 2 8 6 29 10 45 3 17 8 40 10 52 2 11 5 29 9 40 5 16 13 69 22
133 29 220 24 576 -11 758 -3 15 -8 43 -10 62 -3 19 -8 46 -12 60 -3 14 -7 30
-9 35 -1 6 -5 24 -8 42 -3 18 -11 45 -17 60 -6 15 -10 29 -9 31 3 8 -45 148
-52 150 -4 2 -5 8 -2 13 3 6 0 16 -6 24 -7 8 -9 15 -5 15 4 0 3 6 -2 13 -6 6
-18 36 -28 65 -11 28 -23 52 -28 52 -4 0 -6 4 -3 9 3 4 -1 17 -9 27 -8 10 -15
24 -15 30 0 15 -126 243 -145 264 -8 9 -15 20 -15 24 0 8 -26 46 -92 133 -27
34 -48 66 -48 70 0 5 -9 14 -20 21 -11 7 -20 16 -20 21 0 5 -15 25 -32 44
-101 106 -189 196 -219 222 -91 80 -117 102 -148 125 -19 14 -39 30 -46 35 -6
6 -18 15 -27 20 -37 23 -144 95 -153 103 -6 5 -15 11 -20 13 -6 2 -46 24 -90
49 -44 25 -82 45 -85 45 -3 1 -15 6 -27 13 -13 7 -23 9 -23 5 0 -4 -4 -3 -8 3
-10 15 -72 47 -72 37 0 -5 -4 -3 -8 2 -6 10 -134 63 -165 69 -16 4 -47 15 -73
28 -12 5 -33 11 -48 11 -14 1 -26 5 -26 8 0 4 -12 9 -27 12 -16 3 -50 11 -78
17 -27 7 -60 13 -72 13 -13 1 -23 4 -23 7 0 3 -10 6 -22 7 -26 1 -169 21 -208
29 -28 6 -446 15 -451 10z"/>
</g>
</svg>
